<?xml version="1.0" encoding="UTF-8"?>
<!DOCTYPE svg PUBLIC "-//W3C//DTD SVG 1.1//EN" "http://www.w3.org/Graphics/SVG/1.1/DTD/svg11.dtd">
<svg xmlns="http://www.w3.org/2000/svg" version="1.1" width="1024px" height="1024px" style="shape-rendering:geometricPrecision; text-rendering:geometricPrecision; image-rendering:optimizeQuality; fill-rule:evenodd; clip-rule:evenodd" xmlns:xlink="http://www.w3.org/1999/xlink">
<g><path style="opacity:1" fill="#fefefe" d="M -0.5,-0.5 C 340.833,-0.5 682.167,-0.5 1023.5,-0.5C 1023.5,340.833 1023.5,682.167 1023.5,1023.5C 682.167,1023.5 340.833,1023.5 -0.5,1023.5C -0.5,682.167 -0.5,340.833 -0.5,-0.5 Z"/></g>
<g><path style="opacity:1" fill="#f23c34" d="M 1013.5,464.5 C 1012.17,483.5 1012.17,502.5 1013.5,521.5C 998.929,694.243 918.929,826.743 773.5,919C 705.461,960.008 631.795,983.841 552.5,990.5C 549.518,989.835 546.352,989.502 543,989.5C 527.666,989.993 512.499,990.659 497.5,991.5C 343.674,983.835 217.508,921.501 119,804.5C 27.1173,686.307 -6.54932,552.974 18,404.5C 48.6336,255.615 129.134,142.782 259.5,66C 384.61,-1.64607 515.943,-16.9794 653.5,20C 788.522,60.0532 890.022,141.553 958,264.5C 990.519,327.241 1009.02,393.908 1013.5,464.5 Z"/></g>
<g><path style="opacity:1" fill="#f2281d" d="M 563.5,31.5 C 535.865,29.8046 508.198,29.1379 480.5,29.5C 487.769,28.1852 497.102,27.5185 508.5,27.5C 520.506,27.8574 532.506,28.3574 544.5,29C 552.941,29.1723 559.274,30.0056 563.5,31.5 Z"/></g>
<g><path style="opacity:1" fill="#fefefe" d="M 480.5,29.5 C 508.198,29.1379 535.865,29.8046 563.5,31.5C 714.744,50.4959 832.244,123.163 916,249.5C 986.418,367.098 1003.42,492.098 967,624.5C 922.638,764.53 833.471,864.697 699.5,925C 597.264,967.382 492.598,974.382 385.5,946C 243.544,904.033 141.044,816.2 78,682.5C 33.2,577.568 26.5333,470.235 58,360.5C 92.3315,252.085 156.831,166.752 251.5,104.5C 274.977,89.7602 299.644,77.0935 325.5,66.5C 375.204,45.6286 426.871,33.2952 480.5,29.5 Z"/></g>
<g><path style="opacity:1" fill="#f1291b" d="M 325.5,66.5 C 299.644,77.0935 274.977,89.7602 251.5,104.5C 274.482,88.7521 298.982,75.4188 325,64.5C 325.464,65.0944 325.631,65.7611 325.5,66.5 Z"/></g>
<g><path style="opacity:1" fill="#f23c35" d="M 444.5,550.5 C 446.701,551.566 449.035,552.233 451.5,552.5C 452.6,553.558 453.934,554.392 455.5,555C 463.244,557.349 470.911,559.516 478.5,561.5C 479.263,562.268 480.263,562.768 481.5,563C 480.549,563.718 480.383,564.551 481,565.5C 482.126,564.056 483.626,563.39 485.5,563.5C 501.181,564.822 512.847,564.822 520.5,563.5C 591.095,556.383 641.262,520.716 671,456.5C 693.913,390.643 683.58,330.643 640,276.5C 584.138,218.745 518.305,203.579 442.5,231C 396.068,252.096 364.234,286.596 347,334.5C 340.404,350.218 328.571,357.385 311.5,356C 293.173,350.195 285.339,337.695 288,318.5C 319.319,231.526 380.486,179.359 471.5,162C 554.714,151.513 625.547,176.013 684,235.5C 745.918,310.911 759.251,394.244 724,485.5C 691.734,552.43 639.9,596.263 568.5,617C 477.463,636.623 399.629,613.123 335,546.5C 311.926,520.705 295.593,491.039 286,457.5C 284.14,432.026 295.974,419.526 321.5,420C 330.523,421.76 337.356,426.593 342,434.5C 357.939,489.443 392.105,528.11 444.5,550.5 Z"/></g>
<g><path style="opacity:1" fill="#202225" d="M 451.5,552.5 C 449.035,552.233 446.701,551.566 444.5,550.5C 462.54,510.219 480.873,470.052 499.5,430C 469.147,431.469 438.814,433.136 408.5,435C 460.333,372.5 512.167,310 564,247.5C 545.042,290.932 525.875,334.432 506.5,378C 540.9,376.128 575.233,374.128 609.5,372C 556.625,432.038 503.958,492.205 451.5,552.5 Z"/></g>
<g><path style="opacity:1" fill="#f33827" d="M 1013.5,464.5 C 1014.77,483.498 1014.77,502.498 1013.5,521.5C 1012.17,502.5 1012.17,483.5 1013.5,464.5 Z"/></g>
<g><path style="opacity:1" fill="#ee1810" d="M 478.5,561.5 C 492.442,563.165 506.442,563.831 520.5,563.5C 512.847,564.822 501.181,564.822 485.5,563.5C 483.626,563.39 482.126,564.056 481,565.5C 480.383,564.551 480.549,563.718 481.5,563C 480.263,562.768 479.263,562.268 478.5,561.5 Z"/></g>
<g><path style="opacity:1" fill="#101214" d="M 403.5,658.5 C 475.834,658.333 548.167,658.5 620.5,659C 630.78,663.167 633.613,670.334 629,680.5C 626.971,683.596 624.138,685.262 620.5,685.5C 622.828,684.281 625.328,682.281 628,679.5C 631.383,671.654 629.549,665.487 622.5,661C 549.16,661.164 476.16,660.331 403.5,658.5 Z"/></g>
<g><path style="opacity:1" fill="#202225" d="M 403.5,658.5 C 476.16,660.331 549.16,661.164 622.5,661C 629.549,665.487 631.383,671.654 628,679.5C 625.328,682.281 622.828,684.281 620.5,685.5C 547.668,686.666 474.668,686.832 401.5,686C 390.925,680.523 388.759,672.69 395,662.5C 397.421,660.303 400.255,658.97 403.5,658.5 Z"/></g>
<g><path style="opacity:1" fill="#030303" d="M 621.5,723.5 C 623.382,719.019 623.882,714.353 623,709.5C 621.332,705.835 618.499,703.668 614.5,703C 545.167,702.333 475.833,702.333 406.5,703C 405.255,703.791 403.922,704.291 402.5,704.5C 403.058,703.21 404.058,702.377 405.5,702C 475.833,701.333 546.167,701.333 616.5,702C 623.388,704.942 626.221,710.109 625,717.5C 624.576,720.025 623.41,722.025 621.5,723.5 Z"/></g>
<g><path style="opacity:1" fill="#222327" d="M 621.5,723.5 C 619.745,724.072 618.078,724.906 616.5,726C 548.5,726.333 480.5,726.667 412.5,727C 411.584,727.278 410.918,727.778 410.5,728.5C 397.273,725.328 393.773,717.661 400,705.5C 400.671,704.748 401.504,704.414 402.5,704.5C 403.922,704.291 405.255,703.791 406.5,703C 475.833,702.333 545.167,702.333 614.5,703C 618.499,703.668 621.332,705.835 623,709.5C 623.882,714.353 623.382,719.019 621.5,723.5 Z"/></g>
<g><path style="opacity:1" fill="#0c0d0f" d="M 621.5,723.5 C 620.106,725.708 618.106,727.208 615.5,728C 547.167,728.5 478.834,728.667 410.5,728.5C 410.918,727.778 411.584,727.278 412.5,727C 480.5,726.667 548.5,726.333 616.5,726C 618.078,724.906 619.745,724.072 621.5,723.5 Z"/></g>
<g><path style="opacity:1" fill="#020303" d="M 604.5,752.5 C 604.631,753.239 604.464,753.906 604,754.5C 602.932,749.765 600.099,746.598 595.5,745C 539.833,744.333 484.167,744.333 428.5,745C 427.128,745.402 425.795,745.902 424.5,746.5C 423.893,746.376 423.56,746.043 423.5,745.5C 424.473,745.013 425.473,744.513 426.5,744C 483.167,743.333 539.833,743.333 596.5,744C 600.748,745.413 603.415,748.246 604.5,752.5 Z"/></g>
<g><path style="opacity:1" fill="#222327" d="M 604.5,752.5 C 605.833,755.167 605.833,757.833 604.5,760.5C 604.631,759.761 604.464,759.094 604,758.5C 602.99,762.843 600.49,766.01 596.5,768C 539.833,768.667 483.167,768.667 426.5,768C 424.595,766.579 422.595,765.412 420.5,764.5C 415.97,757.342 416.97,751.009 423.5,745.5C 423.56,746.043 423.893,746.376 424.5,746.5C 425.795,745.902 427.128,745.402 428.5,745C 484.167,744.333 539.833,744.333 595.5,745C 600.099,746.598 602.932,749.765 604,754.5C 604.464,753.906 604.631,753.239 604.5,752.5 Z"/></g>
<g><path style="opacity:1" fill="#0d1011" d="M 604.5,760.5 C 602.982,765.517 599.648,768.684 594.5,770C 538.833,770.667 483.167,770.667 427.5,770C 424.405,769.065 422.071,767.231 420.5,764.5C 422.595,765.412 424.595,766.579 426.5,768C 483.167,768.667 539.833,768.667 596.5,768C 600.49,766.01 602.99,762.843 604,758.5C 604.464,759.094 604.631,759.761 604.5,760.5 Z"/></g>
<g><path style="opacity:1" fill="#1f2023" d="M 482.5,783.5 C 502.169,783.333 521.836,783.5 541.5,784C 542.718,785.438 543.385,787.105 543.5,789C 542.133,799.681 536.467,806.681 526.5,810C 516.167,810.667 505.833,810.667 495.5,810C 484.144,805.795 478.977,797.628 480,785.5C 480.995,784.934 481.828,784.267 482.5,783.5 Z"/></g>
<g><path style="opacity:1" fill="#f01108" d="M 552.5,990.5 C 534.176,991.226 515.842,991.56 497.5,991.5C 512.499,990.659 527.666,989.993 543,989.5C 546.352,989.502 549.518,989.835 552.5,990.5 Z"/></g>
</svg>
